<?xml version="1.0" encoding="UTF-8"?>
<svg id="Layer_2" data-name="Layer 2" xmlns="http://www.w3.org/2000/svg" viewBox="0 0 88.26 52.02">
  <g id="Layer_1-2" data-name="Layer 1">
    <g>
      <path d="M19.35,48.8c-.58.27-1.08.59-1.62.72-.49.12-1.09.2-1.52.01-1.48-.65-1.58-1.2-.53-2.47.83-1,1.75-1.94,2.56-2.96.22-.28.16-.77.23-1.16-.38.12-.85.14-1.14.38-2,1.6-3.83,3.44-5.95,4.84-5.6,3.72-10.22-.32-11.12-5.02-.66-3.42.11-6.71,1.14-9.94,1.03-3.24,2.69-6.16,4.6-8.96.51-.75.9-1.74.91-2.63C7,11.91,15.73,3.16,22.12.93c4.85-1.69,9.37-1.08,13.61,1.79,4.88,3.3,9.77,6.59,14.66,9.88.38.26.82.44,1.21.69.76.47,1.42.45,2.21-.06,2.13-1.36,4.53-1.51,6.96-1.27.57.06,1.1.52,1.77.86.28-.33.62-.73.95-1.12-1.4-2.59-1.3-3.91.41-5.49,2.2-2.04,4.51-2.38,6.65-.98,1.53,1,1.92,2.56,1.04,4.17-.18.32-.39.63-.44.72,1.6,0,3.29.01,4.97-.01.33,0,.65-.23.98-.23.95,0,2.07-.26,2.81.15,1.05.58,1.83.43,2.82.07,3.32-1.18,6.22,1.23,5.4,4.64-.76,3.14-1.63,6.32-2.95,9.26-1.04,2.33-1.47,5.06-3.6,6.84-.22.19-.37.48-.62.63-1.83,1.07-2.75,2.78-3.68,4.61-3.75,7.42-9.81,12.01-17.79,14.25-10.44,2.92-20.62,1.91-30.65-1.78-.39-.14-.79-.29-1.19-.43q-2.06-.76-3.42,1.04c-.28.37-.58.73-.8,1.14-.63,1.19-1.7,1.11-2.76.96-1.07-.15-1.05-1.04-1.1-1.86,0-.15-.11-.3-.22-.59M75.32,11.71c-.17-.28-.28-.72-.53-.83-1.16-.5-3.12.5-3.58,1.71-.67,1.77-1.23,3.61-2.1,5.28-.76,1.47-1.87,2.77-2.86,4.12-.14.19-.5.22-.76.32-.1-.29-.24-.58-.28-.88-.03-.24.07-.5.14-.74.81-2.66,1.62-5.32,2.43-7.98.12-.41.19-.83.33-1.5-1.59.64-3.22.36-4.13,1.89-1.12,1.89-2.77,3.23-4.56,4.47-1.05.73-2.1.92-3.19.43-.54-.24-1.26-.8-1.29-1.27-.04-.5.5-1.28.99-1.55.67-.35,1.54-.46,2.32-.42,1.32.07,1.87-.6,2.24-1.77-4.61-.76-7.67,1.61-10.27,4.89-1.75-2.06-3.02-2.49-5.45-1.53-1.67.66-3.25,1.59-4.8,2.52-.39.23-.67.86-.76,1.35-.38,1.99-.65,3.99-1,5.99-.3,1.63-1.21,2.85-2.55,3.73-.15-.05-.29-.09-.44-.14.43-3.11.85-6.22,1.32-9.64-1.02.68-1.79,1.24-2.61,1.72-.9.53-1.38,1.21-1.49,2.31-.18,1.8-.46,3.6-.89,5.36-.23.93-.84,1.76-1.28,2.63-.18-.06-.36-.13-.53-.19.15-1.87.37-3.74.41-5.61.01-.77-.17-1.93-.67-2.22-.66-.38-1.79-.29-2.58-.01-.86.3-1.58,1.04-2.52,1.71.29-2.46.56-4.79.87-7.43-1.16.71-1.99,1.27-2.87,1.73-.75.4-1.06.95-1.12,1.8-.14,1.72-.43,3.43-.58,5.15-.33,3.6-1.07,7.07-2.99,10.21-1.23,2.01-2.71,3.79-4.73,5-1.86,1.12-3.26.76-4.21-1.11-.56-1.11-1.02-2.35-1.14-3.57-.71-7.11,1.96-12.95,7.09-17.73.78-.72,2-1.01,3.06-1.33.29-.09.76.43,1.15.67-.34.18-.67.51-1.01.52-1.47.04-2.46.81-3.14,2-.18.3-.15.86.01,1.18.1.2.7.34.97.24,2.11-.81,3.7-2.21,4.36-4.41.42-1.4-.67-2.63-2.08-2.33-1.29.28-2.67.67-3.73,1.42-6.16,4.29-10.12,10.16-11.93,17.44-.68,2.75-1.13,5.53-.19,8.35,1.31,3.9,4.18,5.15,7.8,3.24,3.56-1.88,6.26-4.66,8.21-8.17.42-.75.84-1.49,1.26-2.24.08.03.15.06.23.1-.09,1.3-.17,2.61-.28,4.19.89-.57,1.49-1.03,2.15-1.37,1.09-.56,1.53-1.38,1.61-2.61.15-2.31.47-4.61.75-6.92.05-.44.14-1,.43-1.27.38-.36.98-.49,1.48-.72.18.47.53.94.52,1.4-.04,1.35-.3,2.68-.35,4.03-.04.95-.59,2.4.56,2.69.81.2,2.02-.58,2.85-1.2.74-.54,1.21-1.45,1.86-2.27.61,1.05,1.48.99,2.21.47,1.08-.78,2.04-1.72,3.01-2.63.46-.43.82-.97,1.46-1.73-.09.86-.12,1.32-.18,1.78-.23,2.01-.52,4.01-.69,6.03-.13,1.66.67,2.24,2.17,1.54.73-.34,1.6-.86,1.91-1.54.66-1.43,1.82-1.8,3.13-1.86,4.54-.23,9.09-.4,13.63-.55,4.8-.15,9.62-.02,14.39-.45,4.05-.36,7.28-2.53,9.39-6.12.38-.65.56-1.42.84-2.13-.15-.07-.3-.14-.45-.2-.33.42-.67.82-.97,1.26-1.48,2.14-3.43,3.73-6.01,4.06-3.04.38-6.12.61-9.18.57-5.96-.08-11.91-.45-17.87-.58-1.87-.04-3.75.23-5.61.49-.41.06-.94.66-1.06,1.11-.28,1-.34,2.07-.49,3.11-.12-.01-.24-.03-.36-.05.28-1.89.51-3.79.86-5.66.05-.3.58-.54.93-.74,1.39-.79,2.86-1.46,4.18-2.35,2.45-1.64,3.97-3.84,3.88-6.95-.01-.5.44-1,.67-1.5.71,2.58.84,2.71,3.46,3.14.46.08.92.13,1.37.25,1.01.28,1.21.82.57,1.67-.88,1.16-2.14,1.47-3.5,1.33-1.18-.13-1.53-1-.85-2.01.23-.34.48-.66.73-.98-.14-.11-.28-.22-.42-.32-.84.95-1.78,1.83-2.48,2.87-.74,1.11-.25,2.2,1.05,2.51,2.71.65,5.23.07,7.4-1.62,2.42-1.89,2.55-3.87.57-6.19,1.32-.91,2.64-1.82,4.19-2.88-.14.58-.2.86-.27,1.14-.39,1.6-.85,3.18-1.17,4.79-.38,1.94.9,3.11,2.73,2.43.95-.35,1.83-1.01,2.62-1.67.69-.57,1.2-1.34,2.01-2.28-.37,1.3-.65,2.28-.94,3.26,2.73.61,3.35.22,3.99-2.12.57-2.11,1.24-4.2,1.89-6.29.23-.75.83-1.21,1.53-.83.31.17.5,1.02.38,1.47-.51,2.04-1.15,4.05-1.72,6.08-.16.58-.24,1.18-.37,1.85.48.05.76.09,1.05.1,2.15.06,2.12.05,2.78-1.96.7-2.16,1.4-4.33,2.2-6.46.38-1.01,1.5-1.5,2.21-1.12.95.51.52,1.34.32,2.02-.63,2.14-1.35,4.26-2.01,6.39-.1.33-.19.81-.04,1.06.36.56,3.01.25,3.21-.39,1.03-3.25,2.11-6.49,2.94-9.8.42-1.71-.87-2.87-2.64-2.49-1.11.23-2.12.88-3.19,1.35-1.16-2-2.04-2.1-5.31-.47M21.25,49.52c.31-.15.41-.17.46-.22,3.71-5.06,8.36-8.97,13.99-11.73.28-.14.63-.42.68-.68.27-1.47.46-2.95.71-4.73-8.29,3.52-14.85,8.72-20.15,15.6,1.34-.49,2.68-.98,4.16-1.51.06,1.23.1,2.18.15,3.27M74.96,38.18c-.13-.16-.25-.32-.37-.48-.34.21-.68.42-1.02.63-2.96,1.75-5.8,3.79-8.92,5.21-10.69,4.88-21.61,5.44-32.67,1.17-.35-.14-.72-.35-1.07-.33-.36.03-.89.22-1.02.48-.15.33-.13.99.1,1.22.46.45,1.08.87,1.69,1,3.21.69,6.42,1.49,9.67,1.86,10,1.14,19.39-.77,27.89-6.32,2.01-1.31,3.81-2.96,5.72-4.45M33.34,7.02c-.05.74-.04,1.37-.16,1.97-.12.61-.3,1.24-.6,1.79-.59,1.11-1.25,2.18-1.93,3.24-.86,1.32-.78,2.42.32,3.49,1.84,1.79,4.32,1.32,5.81-1.09,2.3-3.73,1.02-7.39-3.44-9.4M66.24,10.71c1.92-.02,4.06-1.87,4.02-3.49-.03-1.09-1-1.93-2.23-1.93-1.83,0-3.97,1.8-3.99,3.37-.02,1.22.89,2.06,2.2,2.05M9.41,32.98c-.29,2.99-.58,5.8,1.04,8.4.18.28.9.55,1.12.41.95-.59,1.82-1.31,2.67-2.04.11-.1.05-.58-.09-.76-1.5-1.95-3.04-3.87-4.73-6"/>
      <path d="M41.6,27.31c.48-2.67.95-4.99,1.28-7.33.17-1.17.79-1.67,1.86-1.85,1.35-.23,1.88.19,1.86,1.6-.05,2.94-1.64,5.02-3.79,6.78-.28.23-.6.4-1.21.8"/>
    </g>
  </g>
</svg>