<?xml version="1.0" encoding="UTF-8"?>
<svg id="Layer_2" data-name="Layer 2" xmlns="http://www.w3.org/2000/svg" viewBox="0 0 103.9 45.95">
  <g id="Layer_1-2" data-name="Layer 1">
    <g>
      <path d="M55.39,24.3c-2.04-5.86-4.08-11.72-6.14-17.64-2.04,5.92-4.06,11.78-6.08,17.66-.56-.08-1.11-.15-1.65-.23-2.09-.33-4.16-.77-6.18-1.41-1.92-.61-3.75-1.38-5.38-2.59-1.75-1.3-3.12-2.9-3.86-4.98-.96-2.67-.56-5.17,1.1-7.46,1.21-1.67,2.83-2.88,4.61-3.88,2.3-1.28,4.78-2.12,7.34-2.7,2.66-.6,5.35-.92,8.08-1.02,2.16-.08,4.31-.05,6.46.15,3.77.34,7.45,1.07,10.96,2.56,1.98.84,3.82,1.92,5.39,3.41,1.28,1.23,2.26,2.65,2.69,4.4.49,2.01.14,3.92-.82,5.72-1.15,2.17-2.91,3.72-5.05,4.88-1.82.99-3.78,1.6-5.77,2.11-1.85.47-3.72.8-5.61,1.04-.01,0-.03,0-.08,0M49.25,3.89c.05.06.09.11.13.15.52.69,1.03,1.37,1.55,2.06,2.76,3.65,5.51,7.29,8.26,10.94.12.17.25.21.44.18,1.35-.17,2.66-.5,3.92-1.01,1.37-.55,2.66-1.24,3.72-2.31,1.37-1.39,1.71-3.09.97-4.87-.33-.8-.83-1.5-1.43-2.12-1.18-1.24-2.6-2.13-4.13-2.85-3.02-1.43-6.24-2.13-9.54-2.46-2.5-.25-5-.26-7.5,0-2.39.24-4.73.69-7,1.45-1.99.66-3.89,1.53-5.58,2.8-1.1.83-2.06,1.78-2.66,3.05-.68,1.46-.66,2.88.25,4.25.44.65,1,1.19,1.65,1.64,1.97,1.38,4.19,2.12,6.56,2.46.26.04.41-.02.56-.24,2.02-2.7,4.06-5.4,6.09-8.1,1.25-1.66,2.49-3.33,3.76-5.01"/>
      <path d="M19.5,45.84h-2.87c-.39,0-.51-.08-.65-.44-.96-2.54-1.92-5.08-2.88-7.62-.03-.07-.06-.13-.13-.19v8.24h-1.93v-10.36c.06,0,.13-.02.19-.02.88,0,1.75,0,2.63,0,.41,0,.51.08.66.46.97,2.57,1.95,5.15,2.92,7.72.02.05.04.11.11.16v-8.33h1.95v10.37Z"/>
      <path d="M59.97,35.46h1.95v10.36c-.05,0-.11.02-.16.02-.92,0-1.84,0-2.77,0-.32,0-.46-.1-.58-.41-.97-2.55-1.93-5.11-2.9-7.66-.02-.07-.06-.13-.12-.19v8.25h-1.94v-10.37c.08,0,.15-.01.23-.01h2.58c.43,0,.53.08.69.49.97,2.58,1.95,5.16,2.93,7.75.01.04.03.08.09.11v-8.33Z"/>
      <polygon points="27.82 45.82 27.82 35.47 34.28 35.47 34.28 37.36 30.12 37.36 30.12 39.51 34.23 39.51 34.23 41.41 30.11 41.41 30.11 45.82 27.82 45.82"/>
      <polygon points="85.71 45.83 83.36 45.83 83.36 37.46 80.81 37.46 80.81 35.47 88.22 35.47 88.22 37.45 85.71 37.45 85.71 45.83"/>
      <rect x="42.36" y="35.47" width="2.45" height="10.36"/>
      <rect x="70.46" y="35.47" width="2.45" height="10.36"/>
      <rect y="35.46" width="2.44" height="10.36"/>
      <rect x="96.09" y="35.46" width="2.45" height="10.36"/>
      <path d="M102.46,45.95c-.78,0-1.4-.61-1.4-1.38s.64-1.4,1.42-1.39c.78,0,1.43.63,1.42,1.4,0,.76-.64,1.38-1.44,1.37M102.47,45.67c.63,0,1.12-.49,1.13-1.1,0-.61-.5-1.11-1.12-1.12-.61,0-1.13.51-1.13,1.11,0,.61.5,1.11,1.12,1.11"/>
      <path d="M102.26,44.75v.41c-.08,0-.15,0-.23,0v-1.27c.21,0,.41-.01.6,0,.19.02.34.1.36.31.03.21-.04.37-.25.46-.03.01-.07.03-.11.05.15.14.3.27.46.42-.41.13-.53-.27-.83-.39M102.27,44.58c.18-.07.32-.12.46-.19.02-.01.02-.17,0-.18-.13-.06-.28-.09-.45-.14v.5Z"/>
    </g>
  </g>
</svg>