<?xml version="1.0" encoding="UTF-8"?>
<svg id="Layer_2" data-name="Layer 2" xmlns="http://www.w3.org/2000/svg" viewBox="0 0 126.34 51.42">
  <g id="Layer_1-2" data-name="Layer 1">
    <g>
      <path d="M17,.06c-.54,1.04-1.09,2.08-1.63,3.11-2.73,5.19-5.46,10.38-8.19,15.57-1.18,2.23-2.35,4.46-3.53,6.69-.1.19-.11.33,0,.53,2.68,5.08,5.35,10.17,8.02,15.26,1.11,2.11,2.23,4.21,3.36,6.36.13-.23.24-.44.35-.65,3.68-6.99,7.35-13.97,11.03-20.96.1-.19.12-.32.01-.52-2.03-3.83-4.04-7.66-6.06-11.48-.12-.24-.13-.4,0-.64.55-1,1.06-2.01,1.62-3.06.47.9.93,1.77,1.39,2.64,2.18,4.13,4.35,8.27,6.53,12.4.15.28.16.49,0,.78-2.53,4.78-5.04,9.56-7.55,14.35-1.87,3.56-3.76,7.13-5.62,10.7-.11.21-.24.28-.47.28-.83-.02-1.67-.02-2.5,0-.27.01-.37-.09-.49-.3-1.28-2.47-2.57-4.93-3.86-7.38C6.3,37.8,3.18,31.87.07,25.94c-.09-.17-.09-.29,0-.46,1.79-3.4,3.57-6.79,5.36-10.19,2.19-4.17,4.39-8.34,6.59-12.51.45-.86.9-1.72,1.36-2.58.05-.08.16-.19.25-.19,1.1-.01,2.21,0,3.31,0,.02,0,.03.02.07.04"/>
      <path d="M22.62,3.83c-.41.77-.8,1.5-1.18,2.23-2.56,4.87-5.12,9.74-7.68,14.61-.84,1.61-1.7,3.21-2.53,4.83-.06.12-.05.31,0,.43,2,3.82,4.01,7.65,6.03,11.46.14.25.15.45,0,.7-.49.91-.97,1.83-1.45,2.75-.04.08-.09.17-.16.29-2.72-5.16-5.41-10.29-8.11-15.42,1.92-3.64,3.83-7.27,5.74-10.9,2.55-4.84,5.1-9.68,7.63-14.53.1-.2.21-.27.44-.27.88.01,1.76,0,2.64,0,.18,0,.26.06.34.21,3.21,6.14,6.44,12.28,9.66,18.43,1.18,2.25,2.36,4.5,3.55,6.75.11.22.13.38.01.61-2.7,5.11-5.39,10.22-8.09,15.34-1.69,3.21-3.37,6.41-5.04,9.63-.17.32-.34.46-.72.45-1-.03-2.01-.01-3.07-.01.22-.42.42-.82.64-1.22,2.32-4.41,4.64-8.81,6.96-13.22,1.93-3.68,3.87-7.36,5.81-11.03.09-.18.08-.3,0-.47-3.34-6.33-6.67-12.67-10.01-19-.4-.76-.8-1.53-1.2-2.3-.05-.1-.12-.2-.2-.34"/>
      <path d="M76.29,27.34v-6.66h2.65v10.38h-.85c-.46,0-.92-.03-1.38,0-.34.02-.55-.1-.76-.35-1.78-2.03-3.58-4.04-5.37-6.06-.07-.07-.14-.13-.25-.24v6.61h-2.68v-10.38c.86,0,1.72,0,2.57.01.1,0,.22.11.3.2,1.83,2.05,3.66,4.11,5.49,6.17.07.08.14.15.27.3"/>
      <path d="M51.43,27.25c.74,1.26,1.46,2.51,2.21,3.8h-1.6c-.4,0-.79-.01-1.19,0-.22.01-.34-.06-.45-.25-.52-.92-1.06-1.83-1.6-2.74-.06-.1-.17-.23-.26-.23-1.03-.02-2.05-.01-3.11-.01v3.22h-2.67v-10.39h.34c2.13,0,4.26,0,6.4,0,.69,0,1.36.13,1.99.42,1.06.49,1.59,1.35,1.76,2.47.24,1.64-.46,2.81-1.82,3.71M45.43,25.73c1.35,0,2.68.02,4.01-.02.19,0,.42-.2.56-.37.29-.37.32-.82.3-1.28-.06-.95-.47-1.35-1.42-1.35h-3.44v3.02Z"/>
      <path d="M93.28,31.06c-.97,0-1.91,0-2.85-.01-.1,0-.24-.12-.28-.22-.19-.43-.36-.87-.52-1.31-.06-.16-.13-.24-.31-.24-1.6,0-3.19,0-4.79,0-.19,0-.26.07-.32.23-.17.45-.34.9-.53,1.34-.04.08-.15.19-.24.19-.95.01-1.91,0-2.89,0,.03-.1.05-.18.08-.25,1.45-3.29,2.91-6.58,4.35-9.87.09-.21.19-.29.42-.28,1.02.01,2.04,0,3.05,0,.16,0,.27.01.35.19,1.47,3.36,2.96,6.72,4.44,10.08.01.03.02.06.04.13M86.92,22.63c-.62,1.57-1.2,3.06-1.79,4.56h3.58c-.59-1.51-1.18-2.99-1.79-4.56"/>
      <polygon points="64.36 24.79 64.36 26.86 58.81 26.86 58.81 28.98 65.15 28.98 65.15 31.04 56.14 31.04 56.14 20.67 65.02 20.67 65.02 22.7 58.81 22.7 58.81 24.79 64.36 24.79"/>
      <path d="M102.62,20.66h2.67c.01.07.03.13.03.19,0,2.31.02,4.63-.01,6.94-.02,1.37-.67,2.37-1.96,2.88-.49.19-1.02.34-1.54.42-1.42.23-2.85.25-4.27-.1-.84-.21-1.62-.56-2.2-1.24-.43-.51-.68-1.1-.68-1.76-.01-2.43,0-4.86,0-7.31h2.66v.37c0,2.1.01,4.2,0,6.3,0,.56.22.96.7,1.2,1.34.65,2.68.64,4-.04.43-.22.63-.59.63-1.1-.02-2.12,0-4.24,0-6.36v-.37Z"/>
      <polygon points="122.33 31.04 119.64 31.04 119.64 22.71 115.6 22.71 115.6 20.67 126.34 20.67 126.34 22.7 122.33 22.7 122.33 31.04"/>
      <polygon points="108.29 20.67 110.96 20.67 110.96 28.98 116.86 28.98 116.86 31.03 108.29 31.03 108.29 20.67"/>
    </g>
  </g>
</svg>