<?xml version="1.0" encoding="UTF-8"?>
<svg id="Layer_2" data-name="Layer 2" xmlns="http://www.w3.org/2000/svg" viewBox="0 0 77.91 65.19">
  <g id="Layer_1-2" data-name="Layer 1">
    <g>
      <path d="M36.57,65.19c-3.37-.85-6.86-1.36-10.07-2.62-7.31-2.86-12.93-7.89-16.32-14.99-1.46-3.06-3.52-4.22-6.63-4.29-.41-.01-.8-.4-1.21-.61.45-.15.89-.41,1.34-.42,2.07-.04,4.13.04,6.2-.04.97-.04,1.34.36,1.7,1.21,4.54,10.77,12.69,16.94,24.21,18.47,12.8,1.7,25.58-6.02,30.42-18.18.44-1.1.92-1.56,2.15-1.5,2.41.11,4.83.03,7.25.03.05.15.1.3.15.45-.31.19-.62.57-.92.56-4.04-.2-5.85,2.18-7.7,5.48-5.35,9.5-13.73,14.82-24.58,16.18-.41.05-.82.18-1.23.26h-4.77Z"/>
      <path d="M41.34,0c3.07.73,6.25,1.16,9.2,2.24,7.93,2.92,13.86,8.26,17.55,15.88,1.13,2.32,2.6,3.54,5.22,3.59.74.01,2.03-.36,2.48,1.22-2.93,0-5.67.03-8.42-.05-.33-.01-.76-.61-.94-1.03-4.03-9.68-11.12-15.76-21.36-18.09C31.39.64,16.96,8.26,11.77,21.35c-.49,1.23-1.06,1.71-2.39,1.63-2.01-.12-4.03-.01-6.04-.05-.34,0-.68-.28-1.02-.43.3-.2.61-.57.9-.56,3.78.12,5.61-1.94,7.4-5.16C15.98,7.07,24.44,1.59,35.5.26c.36-.04.71-.17,1.07-.26h4.77Z"/>
      <path d="M77.91,37.2c-2.12.25-3.5-.89-4.81-2.37-1.3-1.46-2.76-2.77-4.32-4.3v6.46c-.72.04-1.27.07-1.94.1v-8.91c1.49-.38,2.6-.06,3.66,1.12,1.65,1.83,3.5,3.47,5.43,5.35v-6.49c.76-.07,1.37-.12,1.98-.18v9.22Z"/>
      <path d="M0,27.98c1.99-.29,3.34.67,4.59,2.1,1.37,1.57,2.93,2.98,4.68,4.74v-6.69h1.82v8.81c-1.42.4-2.5.09-3.53-1.02-1.7-1.85-3.56-3.55-5.56-5.5v6.53c-.77.1-1.38.18-1.99.25v-9.22Z"/>
      <path d="M32.45,29.9c-2.59,0-4.97-.05-7.35.04-.5.02-.99.52-1.48.8.48.29.94.81,1.44.84,1.69.11,3.39,0,5.08.06,1.81.05,2.9,1.1,2.9,2.68,0,1.61-1.07,2.65-2.89,2.68-2.68.04-5.37.01-8.14.01v-1.73h6.45c.48,0,.99.11,1.42-.04.43-.15.77-.55,1.16-.85-.39-.33-.77-.92-1.18-.95-1.69-.11-3.38-.04-5.08-.05-1.95-.02-3.12-.99-3.15-2.6-.03-1.52,1.09-2.58,2.95-2.61,2.54-.05,5.08-.01,7.75-.01.04.54.07,1.05.11,1.73"/>
      <path d="M37.17,37v-1.74c2.18,0,4.33,0,6.49,0,.48,0,1,.12,1.41-.04.4-.16.69-.61,1.03-.93-.35-.3-.7-.84-1.07-.86-1.69-.1-3.38-.04-5.08-.05-2.06-.02-3.08-.86-3.11-2.55-.03-1.74.94-2.64,2.99-2.67,2.48-.04,4.96-.01,7.53-.01.06.59.1,1.04.15,1.53-.27.08-.46.19-.65.19-2.22.01-4.45-.04-6.67.06-.47.02-.92.56-1.38.85.43.27.85.75,1.31.78,1.69.1,3.38,0,5.08.06,2,.06,2.93,1,2.89,2.78-.04,1.67-1.01,2.56-2.93,2.58-2.63.03-5.27,0-7.99,0"/>
      <path d="M63.87,36.97c-1.38.21-2.34.27-2.99-.95-.47-.87-6.67-.98-7.14-.12-.68,1.25-1.61,1.34-3.03,1.05.37-.63.69-1.19,1.04-1.74,1.28-2.06,2.56-4.12,3.86-6.17.94-1.49,2.38-1.48,3.32,0,1.63,2.57,3.23,5.17,4.95,7.92M57.27,30.07c-.81,1.34-1.47,2.43-2.18,3.6h4.39c-.75-1.23-1.4-2.29-2.21-3.6"/>
      <path d="M15.94,28.1h1.66v8.88c-.5.03-1.04.07-1.66.11v-8.99Z"/>
    </g>
  </g>
</svg>