<?xml version="1.0" encoding="UTF-8"?>
<svg id="Layer_2" data-name="Layer 2" xmlns="http://www.w3.org/2000/svg" viewBox="0 0 78.86 54.74">
  <g id="Layer_1-2" data-name="Layer 1">
    <g>
      <path d="M3.8,27.62c0,7.47,0,14.94,0,22.41,0,.32.03.64.12.94.41,1.29,2.16,1.8,3.16.92.53-.46.6-1.1.6-1.75,0-5.74,0-11.47,0-17.21,0-.71-.02-1.41.01-2.12.02-.41-.13-.49-.5-.48-.66.02-1.33,0-2,.01-.3,0-.41-.1-.4-.41.02-.75.02-1.5,0-2.24,0-.27.09-.37.36-.37,1.98,0,3.96,0,5.94,0,.28,0,.36.12.36.38-.01.33,0,.66,0,1,0,6.71,0,13.42,0,20.12,0,1.01-.13,1.99-.55,2.92-.67,1.49-1.83,2.41-3.4,2.79-1.26.31-2.54.27-3.79-.04-2.07-.51-3.41-2.11-3.65-4.29-.05-.48-.08-.97-.08-1.45C0,34.9,0,21.06,0,7.21,0,5.97.07,4.72.4,3.5.83,1.91,1.85.94,3.43.51c1.66-.45,3.32-.44,4.95.08,1.65.52,2.54,1.72,2.82,3.38.15.93.24,1.87.25,2.81.03,3.38,0,6.76.02,10.14,0,.42-.12.54-.54.53-.91-.03-1.83-.03-2.74,0-.41.01-.51-.13-.51-.52.02-3.81.02-7.62,0-11.44,0-.59-.07-1.19-.15-1.77-.1-.73-.53-1.14-1.24-1.25-1.33-.22-2.09.29-2.38,1.63-.07.35-.11.72-.11,1.07,0,7.48,0,14.97,0,22.45"/>
      <path d="M75.13,17.2c-.01-.23-.04-.42-.04-.61,0-3.78,0-7.56-.01-11.35,0-.63-.11-1.27-.24-1.89-.13-.61-.58-.99-1.2-1.05-.45-.04-.91,0-1.35.07-.41.07-.71.34-.8.75-.13.57-.3,1.16-.31,1.75-.02,2.36-.07,4.72.05,7.06.14,2.67.74,5.25,1.87,7.71.99,2.15,1.88,4.35,2.83,6.52,1.24,2.82,2.24,5.72,2.76,8.78.12.69.16,1.4.16,2.11.02,3.81.01,7.62,0,11.43,0,1.15-.13,2.29-.52,3.4-.35,1-.99,1.77-1.98,2.17-2.1.86-4.22.87-6.31,0-1.24-.52-2-1.53-2.29-2.83-.2-.89-.37-1.8-.38-2.7-.04-3.94-.02-7.87-.02-11.81,0-.11.02-.22.03-.4.32,0,.64,0,.95,0,.79-.02,1.58-.03,2.36-.07.38-.02.46.12.46.48-.01,3.13-.01,6.26,0,9.39,0,1.33-.01,2.66.04,3.99.02.47.18.95.32,1.41.17.52.57.81,1.11.88.36.04.74.04,1.11,0,.54-.07.95-.39,1.07-.91.14-.57.26-1.17.27-1.75.03-3.99.08-7.99-.02-11.98-.04-1.46-.43-2.92-.7-4.38-.15-.81-.31-1.65-.62-2.41-.61-1.52-1.34-3-1.99-4.52-1.06-2.44-2.18-4.85-3.11-7.34-.8-2.15-1.14-4.42-1.21-6.72-.06-2.09-.08-4.18-.05-6.28.01-1.12.13-2.24.55-3.3.55-1.39,1.63-2.19,3.04-2.52,1.69-.4,3.38-.39,5.03.23,1.25.47,2.13,1.35,2.43,2.65.24,1.02.41,2.07.42,3.11.05,3.48.01,6.96.02,10.44,0,.4-.1.53-.51.52-1.06-.02-2.13,0-3.23,0"/>
      <path d="M52.71,25.57c.22.19.41.36.61.53,1.38,1.16,1.87,2.7,1.88,4.44.02,5.54.02,11.09.04,16.63,0,.34-.11.46-.45.45-.94-.02-1.88-.02-2.82,0-.39,0-.52-.11-.52-.52.02-5.28.02-10.56,0-15.84,0-.7-.08-1.41-.17-2.11-.14-1.05-.81-1.7-1.78-1.98-.55-.16-1.15-.13-1.72-.18-.29-.02-.29.17-.29.38v5.74c0,4.66,0,9.32.01,13.97,0,.39-.09.54-.5.53-.96-.03-1.91-.02-2.87,0-.3,0-.41-.1-.41-.41.02-.72,0-1.44,0-2.16V7.55c0-.14,0-.28,0-.41-.02-.23.09-.32.32-.32,1.93,0,3.85,0,5.77.02.33,0,.66.02,1,.05,2.37.2,4.12,1.92,4.29,4.3.11,1.49.11,2.99.13,4.49.02,1.72,0,3.43,0,5.15,0,1.86-.65,3.41-2.22,4.49-.1.07-.18.16-.3.26M47.49,24.38c.55,0,1.05.05,1.54-.01.98-.12,2-.71,2.19-2.04.08-.56.2-1.13.21-1.69.02-2.88.03-5.76.02-8.65,0-.44-.07-.88-.18-1.31-.13-.55-.43-1.02-1.02-1.14-.73-.14-1.47-.25-2.21-.32-.54-.05-.54,0-.54.54v14.63Z"/>
      <path d="M39.58,27.42c0,4.84,0,9.67,0,14.51,0,1.11-.15,2.19-.67,3.18-.72,1.38-1.88,2.18-3.4,2.47-1.16.23-2.32.21-3.47-.04-2.09-.47-3.5-1.99-3.86-4.17-.07-.39-.1-.8-.1-1.2,0-9.69,0-19.37,0-29.05,0-1.06.14-2.1.49-3.1.52-1.5,1.52-2.52,3.04-3,1.52-.48,3.07-.49,4.58,0,1.88.61,2.84,2.04,3.17,3.92.14.79.2,1.6.2,2.4.02,4.7.01,9.39.01,14.09M35.8,27.35c0-5.22,0-10.45,0-15.67,0-.38-.03-.77-.09-1.16-.15-1.09-.7-1.61-1.8-1.61-.96,0-1.59.15-1.86,1.37-.11.48-.19.98-.19,1.48-.01,10.39-.01,20.78,0,31.18,0,.27.02.55.08.82.21.94,1.07,1.59,2.04,1.56,1-.04,1.65-.64,1.8-1.67.03-.19.03-.39.03-.58,0-5.24,0-10.48,0-15.71"/>
      <path d="M15.65,27.14V7.39c0-.59,0-.58.6-.58h2.58q.6,0,.6.62c0,10.46,0,20.93,0,31.39,0,1.68,0,3.36,0,5.03,0,.36.09.48.46.47,1.33-.02,2.66,0,3.99-.02.39,0,.5.12.49.5-.02.76-.01,1.53,0,2.29,0,.29-.1.39-.39.39-2.63,0-5.27,0-7.9,0-.36,0-.43-.14-.43-.47,0-6.63,0-13.25,0-19.88h0Z"/>
      <path d="M59.42,27.22V7.43q0-.62.61-.62c.87,0,1.75,0,2.62,0,.55,0,.55,0,.55.55v39.66q0,.59-.59.6c-.89,0-1.77-.02-2.66,0-.42.02-.54-.11-.54-.53.02-4.93.01-9.87.01-14.8v-5.07"/>
    </g>
  </g>
</svg>