<?xml version="1.0" encoding="UTF-8"?>
<svg id="Layer_2" data-name="Layer 2" xmlns="http://www.w3.org/2000/svg" viewBox="0 0 207.28 53.4">
  <defs>
    <style>
      .cls-1 {
        fill: #5b5b5b;
      }
    </style>
  </defs>
  <g id="Layer_1-2" data-name="Layer 1">
    <g>
      <g>
        <path class="cls-1" d="M49.22,30.87l-2.1-4.71,1.59-4.15,2.37-6.18-5.51-2.12-4.81-1.85-1.8-4.06-2.69-6.05-5.39,2.4-4.71,2.1-4.15-1.59-6.18-2.37-2.12,5.51-1.85,4.81-4.06,1.81-6.05,2.69,2.4,5.39,2.1,4.71-1.59,4.14-2.37,6.18,5.51,2.12,4.81,1.85,1.81,4.06,2.69,6.05,5.39-2.4,4.71-2.1,4.15,1.59,6.18,2.37,2.12-5.51,1.85-4.81,4.06-1.81,6.05-2.69-2.4-5.39ZM41.31,36.19l-3.14,1.4-1.43,3.72-1.64,4.26-4.78-1.83-3.21-1.23-3.64,1.62-4.17,1.86-2.08-4.68-1.4-3.14-3.72-1.43-4.27-1.64,1.84-4.78,1.23-3.21-1.62-3.64-1.86-4.17,4.68-2.08,3.14-1.4,1.43-3.72,1.64-4.26,4.78,1.83,3.21,1.23,3.64-1.62,4.17-1.86,2.08,4.68,1.4,3.14,3.72,1.43,4.27,1.64-1.84,4.78-1.23,3.21,1.62,3.64,1.86,4.17-4.68,2.08Z"/>
        <g>
          <polygon points="18.3 7.83 18.3 7.82 13.4 7.82 13.4 7.82 7.82 7.82 7.82 14.44 11.88 12.63 12.08 12.09 16.66 12.09 17.07 12.09 20.65 12.09 23.08 9.66 18.3 7.83"/>
          <polygon points="7.41 19.29 7.41 19.29 3.94 22.76 3.94 22.76 0 26.7 4.68 31.38 6.27 27.23 6.03 26.7 9.27 23.47 9.56 23.17 12.09 20.65 12.09 17.21 7.41 19.29"/>
          <polygon points="7.83 35.1 7.82 35.1 7.82 40 7.82 40 7.82 45.58 14.44 45.58 12.63 41.52 12.09 41.31 12.09 36.74 12.09 36.32 12.09 32.75 9.66 30.32 7.83 35.1"/>
          <polygon points="19.29 45.98 19.29 45.99 22.76 49.45 22.76 49.45 26.7 53.4 31.38 48.72 27.23 47.13 26.7 47.36 23.47 44.13 23.17 43.83 20.65 41.31 17.21 41.31 19.29 45.98"/>
          <polygon points="35.1 45.57 35.1 45.58 40 45.58 40 45.58 45.58 45.58 45.58 38.96 41.52 40.76 41.31 41.31 36.74 41.31 36.32 41.31 32.75 41.31 30.32 43.74 35.1 45.57"/>
          <polygon points="45.98 34.1 45.99 34.11 49.45 30.64 49.45 30.64 53.4 26.7 48.72 22.02 47.13 26.16 47.36 26.69 44.13 29.93 43.83 30.22 41.31 32.75 41.31 36.19 45.98 34.1"/>
          <polygon points="45.57 18.3 45.58 18.3 45.58 13.4 45.58 13.4 45.58 7.82 38.96 7.82 40.76 11.88 41.31 12.08 41.31 16.66 41.31 17.07 41.31 20.65 43.74 23.08 45.57 18.3"/>
          <polygon points="34.1 7.41 34.11 7.41 30.64 3.94 30.64 3.94 26.7 0 22.02 4.68 26.16 6.27 26.69 6.03 29.93 9.27 30.22 9.56 32.75 12.09 36.19 12.09 34.1 7.41"/>
        </g>
      </g>
      <g>
        <path d="M56.9,14.65h5.1l3.75,11.95h.05v-11.95h4.51v20.26h-5.07l-3.78-12.53h-.05v12.53h-4.52V14.65Z"/>
        <path d="M74.74,17.46h5.33l3.28,17.45h-4.22l-.37-3.1h-2.82l-.42,3.1h-4.02l3.23-17.45ZM76.36,28.71h2.01l-.94-8.54h-.04l-1.03,8.54Z"/>
        <path d="M87.11,25.5l-3.19-8.04h4.32l1.38,4.96h.04l1.4-4.96h4.17l-3.21,8.17,3.41,9.28h-4.22l-1.7-5.63h-.04l-1.57,5.63h-4.17l3.38-9.41Z"/>
        <path d="M101.39,35.88h.04c.28-.09.52-.11.87-.11,1.07,0,1.86.63,1.86,1.72,0,1.46-1.44,1.75-2.45,1.75s-2.12-.33-2.93-.68l.42-.59c.59.2,1.18.39,1.79.39.5,0,1.11-.13,1.11-.74,0-.57-.31-.85-.94-.85-.31,0-.59.09-.87.18l-.48-.42,1.07-1.4c-2.71-.31-4.35-2.16-4.35-4.98v-7.93c0-3.41,2.18-5.05,5.18-5.05s5.18,1.64,5.18,5.05v1.62h-4.02v-1.97c0-.59,0-1.59-1.16-1.59s-1.16,1-1.16,1.59v8.63c0,.46,0,1.59,1.16,1.59s1.16-1.14,1.16-1.59v-2.56h4.02v2.21c0,2.99-1.86,4.91-4.87,5.02l-.63.7Z"/>
        <path d="M108.82,17.46h4.02v17.45h-4.02v-17.45Z"/>
        <path d="M114.02,17.46h4.11l1.09,12.41h.04l1.33-12.41h4.04l-2.97,17.45h-4.98l-2.66-17.45Z"/>
        <path d="M127.79,17.46h5.33l3.28,17.45h-4.22l-.37-3.1h-2.82l-.42,3.1h-4.02l3.23-17.45ZM129.4,28.71h2.01l-.94-8.54h-.04l-1.03,8.54Z"/>
        <path d="M137.44,17.46h4.39l3.23,10.29h.04v-10.29h3.89v17.45h-4.37l-3.25-10.79h-.04v10.79h-3.89v-17.45Z"/>
        <path d="M150.94,14.65h6.47c3.4,0,5.05,1.29,5.05,4.77,0,2.13-.3,4.01-2.56,4.77v.05c2.28.41,3.07,2.1,3.07,4.67,0,3.4-1.24,6.01-5.4,6.01h-6.62V14.65ZM155.6,22.66h.86c1.47,0,1.62-1.09,1.62-2.36,0-1.42-.3-2.21-1.45-2.21h-1.04v4.57ZM155.6,31.47h.96c1.55,0,1.72-.76,1.72-2.76,0-1.4-.18-2.74-1.62-2.74h-1.07v5.5Z"/>
        <path d="M167.92,14.65h6.19l3.8,20.26h-4.89l-.43-3.6h-3.27l-.48,3.6h-4.67l3.75-20.26ZM169.8,27.71h2.33l-1.09-9.92h-.05l-1.19,9.92Z"/>
        <path d="M179.13,14.65h5.1l3.75,11.95h.05v-11.95h4.52v20.26h-5.07l-3.78-12.53h-.05v12.53h-4.52V14.65Z"/>
        <path d="M194.62,14.65h4.52v8.29h.08l3.09-8.29h4.95l-3.88,8.39,3.91,11.87h-4.97l-2.08-7.25-1.09,1.67v5.58h-4.52V14.65Z"/>
      </g>
      <path d="M32.99,26.75s-.25-.15-1.48-.33c-.19-.03-.34-.2-.32-.39.01-.14.11-.29.4-.39,0,0,1.43-.14,1.48-1.29,0,0,.32-1.56-.05-2.97-.32-1.24-1.45-2.1-2.73-2.11l-5.12-.04v8.1l-2.75-8.09v-.02h-2.91v14.93h2.91v-6.53l2.23,6.53h.4s.12,0,.12,0h5.98s2.22-.11,2.56-1.9c0,0,.7-4.32-.73-5.52ZM30.15,30.65c-.07.58-.49,1.02-.99,1.02-.38,0-.7-.13-.7-.13v-4.28c.87-.03,1.17.3,1.17.3.71.58.63,2.19.52,3.09ZM30.15,24.6c-.07.49-.49.87-.99.87-.38,0-.7-.11-.7-.11v-3.64c.87-.03,1.17.25,1.17.25.71.49.63,1.86.52,2.63Z"/>
    </g>
  </g>
</svg>