<?xml version="1.0" encoding="UTF-8"?>
<svg id="Layer_2" data-name="Layer 2" xmlns="http://www.w3.org/2000/svg" viewBox="0 0 114.3 42.82">
  <g id="Layer_1-2" data-name="Layer 1">
    <g>
      <path d="M56.04,42.82c-1.35-.04-3.83-.08-6.31-.2-2.31-.11-4.61-.29-6.91-.5-3.1-.28-6.18-.69-9.25-1.22-4.67-.8-9.28-1.85-13.79-3.31-3.43-1.11-6.77-2.44-9.93-4.18-2.25-1.24-4.37-2.66-6.2-4.48-1.36-1.35-2.49-2.85-3.14-4.67-.9-2.53-.59-4.96.69-7.28.87-1.58,2.06-2.89,3.41-4.07,2.12-1.85,4.51-3.28,7.02-4.51,3.51-1.73,7.17-3.02,10.92-4.08,3.41-.97,6.87-1.75,10.37-2.33,1.98-.33,3.96-.64,5.95-.89,2-.25,4.01-.44,6.03-.61C49.73.08,54.57-.06,59.41.02c2.37.04,4.74.12,7.1.27,2.48.16,4.96.39,7.44.66,5.43.59,10.79,1.56,16.07,2.95,3.84,1.01,7.61,2.25,11.23,3.9,2.78,1.26,5.44,2.73,7.82,4.66,1.59,1.29,3.01,2.75,4.02,4.55.86,1.53,1.3,3.17,1.19,4.93-.1,1.48-.58,2.83-1.34,4.1-.99,1.65-2.31,3.01-3.78,4.22-2.32,1.89-4.91,3.34-7.62,4.6-3.46,1.59-7.04,2.81-10.71,3.81-3.2.88-6.43,1.6-9.7,2.14-2.22.37-4.45.69-6.69.98-1.75.23-3.51.37-5.26.52-3.99.34-8,.47-13.14.5M56.75,41.01c3.1-.05,6.2-.1,9.29-.32,2.65-.19,5.3-.4,7.94-.69,2.21-.24,4.41-.57,6.6-.92,2.57-.41,5.11-.95,7.64-1.57,3.94-.98,7.8-2.17,11.52-3.81,2.58-1.13,5.04-2.46,7.27-4.19,1.34-1.05,2.55-2.21,3.48-3.65,1.88-2.91,1.92-5.84.08-8.78-.82-1.31-1.89-2.39-3.07-3.38-1.72-1.43-3.62-2.58-5.61-3.58-2.96-1.49-6.06-2.63-9.22-3.6-4.72-1.44-9.53-2.44-14.4-3.16-1.99-.29-3.99-.54-5.99-.74-2.21-.22-4.43-.4-6.66-.53-2.12-.12-4.25-.19-6.38-.22-5.11-.08-10.2.09-15.29.57-1.89.17-3.78.37-5.66.61-1.83.24-3.65.54-5.47.84-3.03.51-6.03,1.19-9.01,2-3.79,1.04-7.5,2.31-11.03,4.05-2.32,1.14-4.53,2.46-6.48,4.19-1.23,1.09-2.3,2.3-3.05,3.77-.72,1.42-1.03,2.92-.8,4.5.21,1.47.83,2.77,1.7,3.96,1.2,1.63,2.72,2.92,4.38,4.05,2.55,1.74,5.32,3.06,8.19,4.18,3.17,1.24,6.43,2.21,9.74,3.01,3.63.88,7.3,1.56,11.01,2.05,1.91.25,3.81.48,5.73.66,1.97.18,3.95.33,5.93.42,2.54.12,5.08.18,7.63.27"/>
      <path d="M57.15,39.35c-2.25-.06-4.5-.08-6.74-.19-2.35-.11-4.7-.26-7.04-.49-2.67-.26-5.34-.58-7.99-.96-4.63-.68-9.19-1.66-13.67-3.04-3.33-1.02-6.58-2.25-9.63-3.94-1.94-1.07-3.76-2.3-5.28-3.92-1.04-1.1-1.88-2.34-2.26-3.83-.46-1.78-.13-3.45.78-5.02.83-1.42,1.97-2.56,3.25-3.57,2.09-1.65,4.42-2.88,6.84-3.94,3.1-1.35,6.3-2.38,9.57-3.23,3.23-.85,6.49-1.51,9.79-2.02,1.9-.3,3.8-.56,5.71-.77,1.9-.21,3.81-.37,5.72-.52,4.35-.34,8.71-.46,13.07-.38,2.13.04,4.26.1,6.38.22,2.23.13,4.46.3,6.68.53,2.29.24,4.58.52,6.86.88,5.88.9,11.66,2.21,17.24,4.3,2.55.95,5.02,2.07,7.32,3.53,1.54.98,2.98,2.08,4.18,3.47.9,1.05,1.61,2.22,1.91,3.59.38,1.7.06,3.29-.8,4.78-.85,1.47-2.03,2.63-3.34,3.67-2.22,1.74-4.71,3.02-7.29,4.11-3.39,1.43-6.89,2.49-10.46,3.37-2.67.65-5.36,1.2-8.07,1.61-2.19.34-4.39.63-6.59.88-1.99.23-3.99.4-5.99.54-3.37.23-6.74.33-10.13.37M64.41,26.52s.05,0,.07,0c.03.19.06.38.08.57.24,1.66,1.61,2.64,3.26,2.31.85-.17,1.64-.51,2.36-1,.08-.05.18-.06.28-.09.01.1.05.2.03.3-.11.67-.11,1.34.03,2.01.25,1.21.88,2.15,2.06,2.63,1.02.42,2.02.29,3-.12.92-.38,1.71-.96,2.43-1.64.06-.06.15-.09.23-.1.02,0,.07.12.08.19.19,1.5,1.26,2.32,2.75,2.1,1-.14,1.89-.54,2.72-1.09,1.98-1.32,3.57-3.06,5.08-4.87.11-.13.09-.25-.03-.36-.18-.17-.37-.34-.55-.51-.24-.22-.33-.22-.55.01-.63.62-1.25,1.25-1.88,1.88-.81.8-1.66,1.57-2.63,2.19-.37.24-.76.4-1.21.39-.52-.01-.83-.38-.72-.89.04-.2.11-.4.2-.57.17-.33.34-.64.54-.95,1.82-2.88,3.64-5.75,5.47-8.63,1.05-1.65,2.11-3.28,3.17-4.93.15-.23.11-.34-.14-.34-.97,0-1.94,0-2.91,0-.13,0-.3.1-.37.21-1.15,1.75-2.28,3.5-3.42,5.25-.56.85-1.12,1.71-1.69,2.56-.04.07-.13.11-.2.16-.04-.07-.1-.14-.11-.22-.13-.63-.49-1.1-1-1.46-.79-.56-1.69-.71-2.63-.62-1.11.11-2.09.58-3.01,1.18-.98.65-1.84,1.43-2.71,2.21-.86.78-1.73,1.56-2.72,2.2-.48.31-.98.56-1.55.68-.99.21-1.84-.3-1.99-1.25-.17-1.06.27-1.93.97-2.69.03-.04.13-.07.16-.05.04.03.06.11.07.17.01.05,0,.1-.01.16-.11,1.08.81,1.94,1.87,1.73,1.01-.21,1.58-.87,1.83-1.83.34-1.29-.44-2.54-1.75-2.77-.81-.14-1.58.05-2.29.45-.75.42-1.38.98-1.88,1.68-.07.1-.16.18-.24.27-.02-.01-.04-.02-.06-.03-.01-.09-.03-.17-.04-.26-.02-.26-.02-.53-.06-.79-.14-.9-.66-1.49-1.47-1.64-.37-.06-.76-.06-1.12,0-1.11.2-2.03.78-2.83,1.55-.75.73-1.46,1.52-2.19,2.27-.07.07-.15.14-.27.24-.03-.14-.06-.24-.07-.33-.04-.31-.05-.62-.1-.92-.11-.64-.31-1.26-.67-1.81-.23-.35-.57-.45-.94-.26-.26.13-.52.27-.77.43-.45.29-.49.44-.36.96.51,2.07.3,4.04-.85,5.87-.63.99-1.46,1.77-2.61,2.15-1.33.45-2.51-.14-2.82-1.43-.17-.7-.08-1.4.14-2.08.48-1.44,1.4-2.54,2.63-3.41.73-.52,1.53-.92,2.36-1.25.27-.11.3-.18.21-.45-.07-.21-.15-.41-.22-.62-.1-.29-.31-.42-.59-.45-.16-.01-.32-.02-.47,0-1.78.26-3.36.98-4.7,2.2-1.3,1.18-2.18,2.66-2.82,4.28-.32.79-.71,1.54-1.35,2.13-.43.4-.86.79-1.29,1.19-.22.2-.25.32-.09.57.14.22.29.43.45.63.23.29.38.33.67.09.54-.45,1.08-.9,1.59-1.38.41-.39.39-.4.58.13.59,1.67,1.8,2.58,3.54,2.8,1.19.16,2.28-.15,3.32-.7,1.32-.7,2.34-1.73,3.25-2.89.95-1.22,1.87-2.48,2.84-3.68.77-.96,1.63-1.84,2.64-2.55.32-.22.67-.41,1.04-.54.61-.21,1,.17.84.79-.08.31-.2.62-.37.9-1.14,1.9-2.29,3.79-3.44,5.68-.5.81-1.01,1.61-1.51,2.43-.16.27-.08.39.23.39.81,0,1.62-.01,2.43,0,.31,0,.5-.1.67-.36,1.31-2.06,2.63-4.1,3.94-6.15.05-.07.1-.15.15-.22M46.1,17.51s.04-.1.08-.15c.48-.82,1.04-1.58,1.67-2.29,1.25-1.41,2.71-2.59,4.22-3.71.27-.2.53-.37.41-.78.08.01.13.02.18.03,2.05.54,4.11,1.08,6.16,1.62,2.18.58,4.37,1.04,6.63,1.1,1.85.04,3.66-.14,5.38-.89.85-.37,1.66-.82,2.33-1.47.37-.35.64-.76.71-1.29.08-.64-.33-1.04-.95-.9-1.96.44-3.95.72-5.95.82-2.15.11-4.31.08-6.44-.18-2.23-.27-4.45-.6-6.67-.92-1.98-.29-3.96-.62-5.95-.89-2.3-.31-4.61-.41-6.93-.24-1.7.13-3.33.49-4.9,1.15-1.54.65-2.93,1.52-3.99,2.85-1.1,1.37-1.62,2.93-1.29,4.7.32,1.7,1.75,2.92,3.47,3,1.28.07,2.44-.28,3.5-.97,1.68-1.09,2.77-2.66,3.53-4.48.04-.1.06-.2.08-.31.06-.34-.08-.66-.32-.76-.25-.1-.44.01-.69.33-.33.42-.65.86-1.04,1.23-.85.81-1.8,1.46-3,1.64-1.42.23-2.41-.76-2.18-2.17.14-.85.57-1.54,1.15-2.14.85-.88,1.9-1.42,3.04-1.79,2.16-.7,4.38-.8,6.6-.52,1.93.24,3.85.62,5.77.94.09.01.17.07.3.13-.13.08-.2.13-.28.17-2.13,1.09-3.85,2.69-5.39,4.49-.75.89-1.41,1.86-2.12,2.78-.09.12-.25.22-.4.25-.69.14-1.39.24-2.07.38-1.18.24-2.31.62-3.3,1.32-.18.13-.35.34-.44.55-.16.39.13.79.55.77.19-.01.4-.1.56-.21.81-.57,1.68-.95,2.66-1.08.25-.04.51-.04.77-.06.01.03.02.05.03.07-.14.2-.29.4-.44.6-1.52,2.12-3.13,4.16-5,5.98-.85.82-1.72,1.6-2.77,2.15-1.18.62-2.4.99-3.75.81-1.74-.24-2.92-1.83-2.61-3.56.16-.9.63-1.63,1.26-2.26.55-.55,1.19-.98,1.88-1.35.39-.21.48-.58.27-.96-.17-.3-.44-.42-.76-.46-.51-.06-.99.08-1.46.26-2.84,1.09-4.61,3.82-4.42,6.85.15,2.32,1.3,3.98,3.43,4.93,1.46.65,2.98.66,4.52.39,1.65-.29,3.08-1.05,4.38-2.09,1.55-1.24,2.82-2.74,3.99-4.32,1.62-2.18,3.02-4.5,4.43-6.81.55-.9.26-.74,1.27-.85,1.46-.15,2.92-.27,4.38-.4.21-.02.35.05.49.21.4.47.89.82,1.45,1.07.3.14.62,0,.77-.29.13-.24.07-.36-.24-.59-.22-.16-.45-.31-.65-.49-.17-.15-.15-.24.06-.32.04-.01.09-.03.13-.04.97-.38,1.63-1.06,1.88-2.08.25-1.02-.22-1.9-1.14-2.12-.59-.14-1.13,0-1.61.34-.95.67-1.33,1.6-1.28,2.75.02.36.01.36-.35.38-.76.04-1.51.1-2.27.13-.45.02-.9,0-1.36,0"/>
      <path d="M79.97,26.23s-.02.07-.03.09c-.77,1.52-1.7,2.9-3.15,3.85-.39.25-.82.48-1.26.6-1.02.28-1.71-.29-1.72-1.34,0-.8.19-1.56.54-2.28.74-1.53,1.76-2.81,3.21-3.73.35-.22.74-.37,1.17-.4.93-.07,1.54.59,1.36,1.51-.07.34-.19.68-.32,1.01-.17.41-.17.44.21.69"/>
      <path d="M51.34,16.56c.01-.54.2-.99.58-1.34.11-.1.24-.18.38-.23.39-.13.66.09.63.5-.04.61-.74,1.4-1.34,1.5-.14.03-.22-.03-.24-.16-.01-.09-.01-.18-.02-.26"/>
    </g>
  </g>
</svg>