<?xml version="1.0" encoding="UTF-8"?>
<svg id="Layer_2" data-name="Layer 2" xmlns="http://www.w3.org/2000/svg" viewBox="0 0 178.99 48.53">
  <g id="Layer_1-2" data-name="Layer 1">
    <g>
      <g>
        <path d="M66.98,37.68h-11.94v.72h11.94v-.72Z"/>
        <path d="M178.99,37.68h-11.94v.72h11.94v-.72Z"/>
        <path d="M72.4,36.9h4.85v-3.9c0-.69.96-.69.96,0v8.32c0,.7-.96.73-.96,0v-3.53h-4.85v3.53c0,.74-.95.66-.95,0v-8.32c0-.7.95-.66.95,0v3.9Z"/>
        <path d="M83.93,33.99l-2.08,4.49h4.16l-2.07-4.49ZM81.45,39.38l-1.07,2.25c-.24.53-1.11.16-.87-.41l3.98-8.49c.08-.19.26-.27.44-.27s.33.09.42.27l3.97,8.45c.34.61-.63.97-.88.41l-1.03-2.21h-4.96Z"/>
        <path d="M87.9,33.18c-.26-.62.67-1.02.94-.4l3.46,7.36,3.38-7.33c.21-.59,1.13-.27.93.37l-3.87,8.38c-.19.37-.67.46-.9-.04l-3.93-8.34Z"/>
        <path d="M100.36,34l-2.08,4.48h4.16l-2.07-4.48ZM97.88,39.37l-1.07,2.24c-.24.53-1.11.16-.87-.41l3.98-8.45c.08-.19.26-.27.44-.27s.33.08.42.27l3.97,8.41c.34.61-.63.97-.88.41l-1.03-2.2h-4.96Z"/>
        <path d="M112.09,38.1l-3.4-4.81c-.4-.57.48-1.11.85-.53l3.03,4.43,3.08-4.45c.34-.54,1.17-.09.8.52l-3.37,4.84v3.21c0,.36-.27.53-.5.53-.27,0-.5-.17-.5-.53v-3.22h0Z"/>
        <path d="M118.29,37.07c0,2.33,1.47,3.81,3.38,3.81s3.34-1.42,3.34-3.81c0-1.83-1.16-3.3-2.83-3.58-.41-.06-.8-.06-1.18,0-1.64.27-2.72,1.65-2.72,3.58ZM117.27,37.02c0-2.23,1.44-4.14,3.6-4.49.5-.07.96-.06,1.44,0,2.09.34,3.71,2.16,3.71,4.49,0,2.96-2.04,4.83-4.35,4.83-2.45,0-4.4-1.82-4.4-4.83Z"/>
        <path d="M127.99,41.87c-.37,0-.52-.19-.52-.54v-8.33c0-.68,1-.68,1,0v7.91h5.08c.69,0,.69.96,0,.96h-5.57Z"/>
        <path d="M135.81,41.87c-.37,0-.52-.19-.52-.54v-8.33c0-.68,1-.68,1,0v7.91h5.08c.69,0,.69.96,0,.96h-5.57Z"/>
        <path d="M146.87,33.99l-2.08,4.49h4.15l-2.07-4.49ZM144.39,39.38l-1.07,2.25c-.24.53-1.11.16-.87-.41l3.98-8.48c.08-.19.26-.27.44-.27s.33.09.42.27l3.97,8.43c.34.61-.63.97-.88.41l-1.03-2.21h-4.96Z"/>
        <path d="M153.47,37.58h2.77c1.8,0,2.58-.89,2.55-1.99-.01-1.2-.96-2.16-2.55-2.16h-2.77v4.15ZM153.47,38.51v2.83c0,.67-1,.67-1,.02v-8.38c0-.31.21-.51.51-.51h3.25c2.38,0,3.58,1.43,3.58,3.14,0,1.47-.76,2.54-2.44,2.85l2.22,2.56c.52.56-.23,1.2-.69.7l-2.78-3.2h-2.66Z"/>
        <path d="M161.47,32.99c0-.7.99-.69.99,0v8.38c0,.64-.99.67-.99,0v-8.38Z"/>
        <path d="M61.64,17.42l-3.08,6.39h6.13l-3.06-6.39ZM57.98,25.08l-1.58,3.2c-.35.75-1.64.22-1.28-.59l5.88-12.07c.12-.26.39-.38.64-.38s.49.12.62.38l5.86,12c.51.87-.93,1.38-1.3.59l-1.52-3.14h-7.32Z"/>
        <path d="M71.69,27.2h8.31c.92,0,.93,1.39,0,1.45h-9.62c-.76,0-.99-.65-.56-1.22l8.72-10.79h-7.89c-.86,0-.88-1.33,0-1.39h9.27c.8,0,1.01.65.56,1.26l-8.8,10.68Z"/>
        <path d="M96.57,22.54h3.93c2.55,0,3.66-1.27,3.62-2.83-.02-1.7-1.36-3.08-3.62-3.08h-3.93v5.9ZM96.57,23.85v4.03c0,.96-1.42.96-1.42.02v-11.93c0-.44.29-.73.72-.73h4.62c3.37,0,5.08,2.04,5.08,4.47,0,2.1-1.07,3.62-3.47,4.05l3.15,3.64c.74.79-.33,1.7-.97,1l-3.93-4.55h-3.78Z"/>
        <path d="M109.39,27.28h4.36c1.71,0,3.6-.49,3.6-2.61,0-1.67-1.32-2.38-3.02-2.38h-4.95v4.99ZM109.39,16.62v4.3h3.97c1.68,0,3.14-.49,3.14-2.02,0-1.81-1.99-2.27-3.19-2.27h-3.91ZM113.75,28.65h-5.06c-.39,0-.72-.34-.72-.76v-11.88c0-.42.33-.76.72-.76h4.61c1.81,0,4.62.65,4.62,3.64,0,1.1-.49,2.06-1.5,2.51,1.42.49,2.4,1.56,2.4,3.27,0,3.14-2.61,3.98-5.06,3.98Z"/>
        <path d="M126.4,17.42l-3.08,6.39h6.13l-3.06-6.39ZM122.74,25.08l-1.58,3.2c-.35.75-1.63.22-1.28-.59l5.88-12.07c.12-.26.39-.38.64-.38s.49.12.62.38l5.86,12c.51.87-.93,1.38-1.3.59l-1.52-3.14h-7.32Z"/>
        <path d="M160.1,17.42l-3.08,6.39h6.13l-3.06-6.39ZM156.44,25.08l-1.58,3.2c-.35.75-1.64.22-1.28-.59l5.88-12.07c.12-.26.39-.38.64-.38s.49.12.62.38l5.86,12c.51.87-.93,1.38-1.3.59l-1.52-3.14h-7.32Z"/>
        <path d="M177.37,15.97c0-.86,1.48-.9,1.48,0v11.74c0,1.02-1.34,1.13-1.75.41l-7.28-10.25.16,2.82v7.22c0,1-1.48,1.02-1.48,0v-11.72c0-1.02,1.09-1.19,1.58-.43l7.5,10.54-.19-3.09v-7.24h0Z"/>
        <path d="M135.91,23.26l-4.99-6.88c-.59-.82.71-1.58,1.24-.76l4.46,6.35,4.52-6.37c.49-.78,1.72-.12,1.18.74l-4.95,6.92v4.6c0,.51-.39.76-.73.76-.4,0-.73-.25-.73-.76v-4.6h0Z"/>
        <path d="M151.29,27.92c-.93.45-1.98.73-2.91.73-3.32,0-6.31-2.83-6.31-6.84,0-3.32,2.27-5.95,5.27-6.43,2.27-.32,4.26.26,5.79,1.94.58.69-.47,1.52-1.01.91-1.32-1.46-2.86-1.68-4.56-1.48-2.39.39-4.08,2.14-4.08,5.08s2.27,5.42,4.95,5.42c.72,0,1.52-.2,2.25-.59.6-.32,1.19-.81,1.59-1.36.45-.69,1.63.06,1.13.81-.52.77-1.26,1.37-2.1,1.8Z"/>
        <path d="M87.74,27.27c-.72,0-1.53-.2-2.27-.59-.42-.23-.83-.53-1.18-.88-.77-.8-1.32-1.95-1.47-3.16h9.84c-.37,2.68-2.47,4.63-4.93,4.63ZM88.84,15.31c-2.29-.33-4.28.27-5.83,1.96-.59.69.47,1.53,1.02.92,1.33-1.47,2.88-1.69,4.6-1.49,2.29.37,3.94,2,4.09,4.7l-10.38-.02c-.8,0-1.02.5-.98.95v-.02c.15,2.49,1.44,4.36,2.84,5.24.21.14.43.27.65.39.94.45,2,.73,2.93.73,3.34,0,6.36-2.85,6.36-6.88,0-3.34-2.29-5.99-5.3-6.48Z"/>
      </g>
      <g>
        <path d="M38.13,34.54c-2.52,7.62-9.7,13.14-18.16,13.14C9.43,47.68.85,39.1.85,28.56S9.43,9.44,19.97,9.44c3.21,0,6.24.8,8.89,2.2l.68-.6c-2.85-1.56-6.11-2.45-9.58-2.45C8.96,8.59,0,17.55,0,28.56s8.96,19.97,19.97,19.97c8.94,0,16.54-5.91,19.07-14.03l-.91.04Z"/>
        <path d="M7.18,34.71c11.53-1.06,22.96-2.83,34.22-5.67-.17.78-.35,1.56-.52,2.33-14.41,3.28-24.46,3.59-33.7,3.33Z"/>
        <path d="M9.01,33.57c10.8-1.7,21.86-4.38,33.21-8.22-.18.8-.36,1.59-.53,2.39-12.6,3.96-23.34,5.73-32.68,5.84Z"/>
        <path d="M10.77,32.35c10.59-2.64,21.38-6.34,32.3-10.76-.18.8-.36,1.6-.54,2.4-11.56,4.54-22.26,7.53-31.76,8.36Z"/>
        <path d="M12.52,30.91c10.68-3.24,21.18-8.13,31.58-13.98-.22.98-.44,1.97-.66,2.95-12.45,6.18-23,10.14-30.92,11.03Z"/>
        <path d="M14.8,29.39c11.99-5.8,21.75-11.81,30.53-17.91-.24,1.08-.48,2.16-.73,3.25-9.96,6.36-19.9,11.63-29.8,14.66Z"/>
        <path d="M16.54,27.5c11.79-7.45,22.02-15.04,30.3-22.78-.29,1.32-.59,2.65-.89,3.97-9.78,8.44-19.8,14.26-29.41,18.82Z"/>
        <path d="M47.51,0c-1.11.03-2.23.06-3.34.09-4.13,5.04-8.29,9.41-12.47,13.39-4.53,4.32-9.08,8.19-13.64,12,9.98-6.74,19.89-14.28,29.45-25.48Z"/>
      </g>
    </g>
  </g>
</svg>