<?xml version="1.0" encoding="UTF-8"?>
<svg id="Layer_2" data-name="Layer 2" xmlns="http://www.w3.org/2000/svg" viewBox="0 0 141.31 56.73">
  <defs>
    <style>
      .cls-1 {
        fill-rule: evenodd;
      }
    </style>
  </defs>
  <g id="Layer_1-2" data-name="Layer 1">
    <g>
      <path class="cls-1" d="M8.25,18.3v-10h16.11v16.23h-3.63l-8.9-8.96-.44-.44-3.15,3.17Z"/>
      <path class="cls-1" d="M0,28.36l11.39-11.48,11.39,11.48-2.57,2.59H7.02v4.48L0,28.36Z"/>
      <path class="cls-1" d="M8.25,48.42h9.92l-2.71-2.73-.43-.44,9.33-9.4v-3.66H8.25v16.23Z"/>
      <path class="cls-1" d="M28.16,56.73l-11.39-11.48,11.39-11.48,2.57,2.59v13.3h4.45s-7.02,7.07-7.02,7.07Z"/>
      <path class="cls-1" d="M48.07,48.42h-16.11v-16.23h3.63l8.9,8.96.44.44.43-.44,2.71-2.73v10Z"/>
      <path class="cls-1" d="M56.32,28.3l-11.39,11.48-11.39-11.48,2.57-2.58h13.2v-4.48s7.02,7.07,7.02,7.07Z"/>
      <path class="cls-1" d="M48.07,8.31v16.23h-16.11v-3.66l8.9-8.96.44-.44-.44-.44-2.71-2.73h9.92Z"/>
      <path class="cls-1" d="M39.55,11.48l-11.39,11.47-2.57-2.59V7.07s-4.45,0-4.45,0L28.16,0l11.39,11.48Z"/>
      <path d="M71.36,14.91c2.35,0,3.19-1.23,3.19-2.7,0-1.58-.64-2.72-2.66-2.72h-1.82v5.42h1.29ZM66.29,6.52h6.09c3.52,0,6.05,2.08,6.05,5.6,0,3.1-2.53,5.71-7.2,5.71h-1.15v4.46h-3.79V6.52Z"/>
      <path class="cls-1" d="M94.37,21.42l1.06-2.72c1.4.49,2.41.71,4.14.71,1.88,0,2.75-.58,2.75-1.54,0-2.57-7.44-1.87-7.44-7.23,0-3.03,2.86-4.35,5.63-4.35,2.48,0,3.68.54,4.89,1.07l-1.08,2.63c-1.15-.33-2.11-.65-3.7-.65s-2.06.6-2.06,1.27c0,2.1,7.58,2.1,7.58,7.12,0,3.46-3.28,4.8-6.51,4.8-2.57,0-4.08-.47-5.25-1.12ZM108.12,6.52h3.77v6.4h6.16v-6.4h3.77v15.77h-3.77v-6.49h-6.16v6.49h-3.77V6.52Z"/>
      <path d="M129.48,14.93l1.58-6.07,1.57,6.07h-3.15ZM133.62,6.52h-5.14l-5.27,15.77h3.9l1.48-4.62h4.92l1.48,4.62h3.9l-5.27-15.77ZM84.18,14.93l1.57-6.07,1.57,6.07h-3.15ZM88.32,6.52h-5.14l-5.27,15.77h3.9l1.48-4.62h4.92l1.48,4.62h3.9l-5.27-15.77Z"/>
      <path d="M74.62,45.67c1.96,0,3.23-.24,4.7-.78l-.78-2.78c-1.16.3-2.05.43-3.53.43-3.08,0-5.11-1.71-5.11-4.93s1.92-4.77,4.68-4.73c1.68.02,2.28.17,3.73.56l.97-2.67c-1.14-.52-2.48-.96-4.74-.96-5.19,0-8.36,3.02-8.36,8.01s2.87,7.83,8.45,7.83ZM84.59,45.6c1.29,0,2.52-.67,3.38-1.35.32,1.02,1.83,1.26,3.25,1.26.28,0,.56,0,.84-.02l.13-2.73c-.67-.02-1.06-.11-1.06-.5v-5.27c0-2.67-1.46-3.71-5.11-3.71-1.87,0-3.43.43-4.76.96l.71,2.63c1.1-.3,2.35-.52,3.51-.52,1.46,0,2.13.3,2.13,1.34v.74h-2.05c-2.33,0-5.04.61-5.04,3.6,0,2.36,1.46,3.58,4.05,3.58ZM85.35,42.8c-.65,0-1.31-.3-1.31-1,0-.87.77-1.22,1.83-1.24l1.77-.04v1.87c-.78.26-1.59.41-2.28.41ZM94.2,50.18h3.58v-4.64c.43.02.91.09,1.44.09,3.42,0,6.59-1.74,6.59-6.68,0-4.19-1.96-5.69-5.19-5.69-1.08,0-2.37.74-2.84,1.15v-.85h-3.58v16.62ZM99.31,42.87c-.58,0-1.19-.09-1.53-.13v-6.12c.45-.15,1.16-.32,1.77-.32,1.81,0,2.65.63,2.65,2.75s-1.06,3.82-2.89,3.82ZM107.99,45.41h3.6v-11.85h-3.6v11.85ZM111.58,32.18v-2.86s-3.6,0-3.6,0v2.86s3.6,0,3.6,0h0ZM119.56,45.69c.86,0,2.43-.22,3.34-.54l-.34-2.84c-.86.2-1.75.35-2.54.35-.97,0-1.29-.28-1.29-1.15v-5.27h3.64v-2.67h-3.64v-2.43h-3.58v2.43h-1.72v2.67h1.72v5.49c0,2.99,1.59,3.97,4.42,3.97ZM128.11,45.6c1.29,0,2.52-.67,3.38-1.35.32,1.02,1.83,1.26,3.25,1.26.28,0,.56,0,.84-.02l.13-2.73c-.67-.02-1.06-.11-1.06-.5v-5.27c0-2.67-1.46-3.71-5.11-3.71-1.87,0-3.42.43-4.76.96l.71,2.63c1.1-.3,2.35-.52,3.51-.52,1.46,0,2.13.3,2.13,1.34v.74h-2.05c-2.33,0-5.04.61-5.04,3.6,0,2.36,1.46,3.58,4.05,3.58ZM128.86,42.8c-.65,0-1.31-.3-1.31-1,0-.87.78-1.22,1.83-1.24l1.77-.04v1.87c-.78.26-1.59.41-2.28.41ZM137.72,45.41h3.6v-16.36h-3.6v16.36Z"/>
    </g>
  </g>
</svg>