<?xml version="1.0" encoding="UTF-8"?>
<svg id="Layer_2" data-name="Layer 2" xmlns="http://www.w3.org/2000/svg" viewBox="0 0 214.83 53.76">
  <g id="Layer_1-2" data-name="Layer 1">
    <g>
      <path d="M42.18,50.97c1.54-.33,2.88-.62,4.35-.93-.07-.95-.06-1.96,1.17-2.42.2-.07.25-.7.27-1.08.1-1.69.15-3.38.26-5.07.03-.36.19-.74.37-1.05.53-.88,1.26-1.67,1.64-2.62.61-1.52,1-3.14,1.48-4.71.28-.91.59-1.81.81-2.73.33-1.39.52-2.79-.57-4,2.31-.38,4.45-.73,6.74-1.1.09,1.02.19,2.08.28,3.14.08,0,.15,0,.22,0,.05-.73.17-1.46.12-2.18-.05-.93.22-1.38,1.23-1.36,1.14.02,2.29-.02,3.43-.14.97-.1,1.32.32,1.46,1.2.82,4.99.33,9.81-1.88,14.4-.59,1.23-1.29,2.41-1.87,3.65,2.46-2.51,3.91-5.59,4.85-8.93.95-3.36,1.07-6.79.53-10.26.16-.04.32-.08.48-.11.14.36.36.7.39,1.07,1.03,9.51-2.1,17.38-9.82,23.07-7.61,5.61-16.08,6.45-24.66,2.61-8.64-3.87-13.41-10.85-14.4-20.27-.18-1.74,0-3.53.11-5.29.02-.33.5-.89.76-.89,3.47,0,6.94-.01,10.4.21,1.82.11,3.6.69,5.45,1.07.34,1.45.2,1.64-1.7,2.18.5,1.38,1.04,2.73,1.5,4.12.17.51.2,1.07.27,1.61.14,1.13.16,2.25,1.45,2.88.34.17.39,1.03.46,1.59.09.73.03,1.38.91,1.86.45.25.68,1.19.73,1.85.12,1.53.06,3.07.1,4.61.01.66.2,1.14.99,1.35,1.29.35,1.61,1.48,1.68,2.69"/>
      <path d="M10.61,4.93c-1.43.68-2.77,1.15-3.94,1.91-3.2,2.05-3.42,5.67-.53,8.13.86.73,1.83,1.46,2.88,1.81,2.3.76,4.67,1.68,7.06,1.8,3.76.21,7.55-.13,11.32-.34,2.32-.13,4.63-.45,6.94-.68.12-.01.26-.04.35,0,1.56.75,3.02.1,4.51-.29,1.43-.38,2.7.14,3.98.75.36.17.99.17,1.31-.04,1.72-1.14,3.56-1.18,5.13.14.62.52.97.44,1.61.04.62-.38,1.47-.66,2.19-.6,3.38.27,6.74.73,10.12,1.01,4.72.39,9.42.19,13.83-1.74,1.45-.63,2.87-1.54,4.01-2.64,2.32-2.24,2-5.48-.64-7.34-.98-.7-2.17-1.1-3.27-1.62-.34-.16-.7-.26-1.14-.42,2.61-1.32,6.07-.92,8.19.93,2.42,2.13,3.03,4.82,2.12,7.84-1.2,3.97-4.23,6.29-7.79,7.94-4.83,2.23-10,2.64-15.27,2.69-2.41.02-4.82.6-7.24.91-1.51.19-3.03.35-4.55.52-.67.39-1.39.81-2.11,1.23.05.1.1.2.15.3.21-.04.41-.09.62-.13,1.17-.21,1.81.24,1.74,1.42-.07,1.12-.37,2.22-.58,3.35-1.52-.45-1.86-.18-1.76,1.35.34-.2.64-.37,1.21-.7-.05.89.08,1.63-.16,2.23-.48,1.2-1.3,2.28-1.72,3.49-.53,1.55-2.03,2.72-1.72,4.61.14.87-.05,1.8-.08,2.71-.04.97.09,1.94-1.12,2.46-.33.14-.36.96-.56,1.59-.86.17-1.85.37-2.43.5-1.1-.9-2.02-1.62-2.88-2.39-.2-.18-.31-.55-.32-.84-.07-1.49-.11-2.99-.14-4.48-.02-1.02-.26-1.87-1.12-2.6-.4-.34-.45-1.19-.5-1.83-.06-.73-.24-1.25-.97-1.59-.33-.15-.73-.64-.72-.97.01-2.25-1.32-4.13-1.63-6.29,0-.03,0-.08.02-.11,1.69-1.21,1.74-1.35,1.3-3.25-4.39-.78-8.7-1.71-13.23-1.42-5.25.34-10.39-.54-15.23-2.76-2.36-1.09-4.4-2.63-6.02-4.68C-1.42,12.69-.22,6.87,4.31,4.94c2.04-.87,4.1-.74,6.3-.01M57.99,23.21c.03-.11.06-.16.05-.19-.45-1.1-2.03-1.64-1.6-3.18,0-.02-.05-.06-.08-.08-.79-.81-3.87-1.29-4.87-.7-.63.38-1.07.32-1.66-.17-1.78-1.47-3.34-1.45-5.3-.17-.34.22-1.07.34-1.35.14-1.97-1.48-3.96-1.27-6.02-.25-.23.11-.63.27-.75.17-1.23-1.04-2.65-.5-3.99-.5-.84,0-1.37.28-1.29,1.35.03.45-.53.98-.89,1.42-.27.33-.66.55-.94.87-.04.04.31.59.43.57.42-.06.83-.25,1.22-.44.1-.05.13-.27.21-.46,1.28,1.95,1.38,1.99,2.89,1.19-.03.37-.17.76-.06,1.04.12.31.45.62.76.73.25.08.76-.03.9-.24.62-.88,1.15-1.83,1.76-2.82.03.33.21.74.08.97-.73,1.26-.08,2.54-.2,3.8-.07.73-.38,1.53-.82,2.13-.67.93-.69,2.13.22,2.97-.03-.14-.04-.25-.06-.36-.13-.72-.25-1.43.58-1.85.9-.45,1.93-.68,2.64.07.42.44.42,1.33.5,2.03.05.48-.25,1.03-.14,1.48.29,1.13-.28,1.8-1.09,2.55-.61-.76-1.17-1.46-1.73-2.17-.13.06-.26.12-.39.18.2.71.33,1.46.62,2.13.43.98.99,1.89,1.47,2.85.17.34.16.87.42,1.05,1.09.79,1.18,1.86,1.13,3.05-.04.9.02,1.81-.02,2.72-.04.98-.05,1.88,1.12,2.32.35.13.55.65.86.94.33.32.69.82,1.06.83.66.03,1.39-.07,1.55-1.06.06-.38.59-.68.86-1.05.25-.34.6-.71.63-1.09.12-1.65.11-3.3.22-4.95.03-.42.32-.84.55-1.21.51-.81,1.38-1.54,1.49-2.38.11-.9.24-1.61.87-2.28.22-.24.2-.71.36-1.38-.76.61-1.26,1.02-1.9,1.53-.28-.51-.64-.91-.73-1.37-.17-.88-.26-1.79-.24-2.68.04-1.97,1.3-2.95,2.7-2.12.49.29.81.87,1.36,1.48.04-.76.12-1.37.1-1.98-.02-.65-.28-.97-1.07-.82-.42.08-.93-.27-1.4-.43.28-.45.46-1.06.87-1.32.59-.37.57-.59.32-1.2-.36-.88-.45-1.86-.66-2.8,1.66,2.46,2.57,3.12,3.8,2.56-.28-.39-.58-.8-.87-1.2.84.16,1.49.65,2.08.59.48-.05.89-.77,1.36-1.22.38.81,1.12.9,2.04.4M14.21,19.13c.36.26.68.61,1.08.78,1.73.74,3.43,1.62,5.24,2.08,1.69.42,3.5.53,5.25.47,2.01-.06,3.27-1.81,2.82-3.64-4.75.64-9.52,1.04-14.4.31M73.01,19.22c-.08-.13-.17-.26-.25-.4-4.82.98-9.6.3-14.37-.34-.27,2.09.92,3.58,3.03,3.76,3.99.34,7.62-.84,11.03-2.82.17-.1.37-.14.56-.2"/>
      <path d="M211.19,28.67c-.31,1.52-.59,2.83-.85,4.09h-103.96c.25-1.29.45-2.45.74-3.58.06-.24.45-.46.73-.56.28-.1.62-.03.94-.03,18.64,0,37.27.02,55.91.03,14.96.01,29.92.03,44.89.04h1.6M108.25,31.25h1.24c7.34.01,14.69.03,22.04.03,21.24,0,42.49,0,63.73,0,4.22,0,8.45.02,12.68.04.77,0,1.38-.08,1.09-1.26h-1.59c-22.51-.01-45.01-.02-67.52-.03-10.15,0-20.3-.02-30.45-.04-.77,0-1.49-.03-1.21,1.25"/>
      <path d="M52.36,6.64c-8.34-2.93-16-1.83-23.04,3.35,4.17-2.42,8.68-3.61,13.5-3.44,4.84.17,9.28,1.6,13.38,4.73-4.62.16-9,.31-13.38.45v.28c4.67.23,9.34.47,14.31.71-1.27,1.46-2.31,2.68-3.4,3.86-.18.2-.57.2-.85.31-1.66.65-3.22.68-4.91-.18-1.14-.58-2.46-.17-3.61.53-.31.19-.88.2-1.22.03-1.86-.89-3.7-.92-5.63-.26-.51.17-1.11.06-1.67.09-2,.08-4.01.1-6.01.26-2.7.23-5.39.57-8.15.7,3.62-7.14,9.33-11.53,17.12-13.19,4.93-1.06,12.23-.13,13.57,1.77"/>
      <path d="M110.74,18.46h12.58c-.26,1.27-.45,2.39-.75,3.48-.06.24-.47.54-.73.54-5.29.04-10.57.04-15.86.05-.11,0-.22-.08-.42-.16.64-3.07,1.28-6.15,1.93-9.22.62-2.92,1.25-5.85,1.85-8.77.11-.57.28-.92.96-.92,5.13.03,10.26.02,15.39.03.15,0,.3.07.59.14-.23,1.18-.4,2.33-.72,3.45-.07.23-.68.44-1.04.44-3.47.03-6.94.05-10.42,0-.85-.01-1.26.2-1.43,1.09-.55,2.94-1.2,5.86-1.8,8.79-.06.3-.08.61-.14,1.07"/>
      <path d="M141.04,8.6c-.46,2.22-.93,4.48-1.39,6.74-.44,2.12-.85,4.25-1.35,6.35-.08.32-.56.78-.87.78-4.3.05-8.6.03-12.91.02-.11,0-.23-.06-.43-.11.59-2.81,1.15-5.62,1.8-8.41.06-.25.71-.52,1.09-.53,2.56-.05,5.13-.03,7.7-.02.7,0,1.19-.13,1.02-1.1h-9.46c.25-1.25.44-2.36.7-3.44.06-.21.42-.49.65-.49,4.38-.02,8.76,0,13.15,0,.06,0,.13.08.3.2M129.15,18.66c1.53,0,3.05-.05,4.58.02,1.03.05,1.44-.31,1.27-1.41-1.59,0-3.17.04-4.73-.02-.98-.04-1.24.39-1.12,1.41"/>
      <path d="M168.32,8.44c-.82,3.94-1.59,7.67-2.39,11.4-.57,2.68-.59,2.68-3.4,2.68h-11.23c.61-2.94,1.18-5.74,1.82-8.53.06-.24.64-.5.98-.5,2.6-.04,5.21-.04,7.81-.02.73,0,1.15-.2.96-1.18h-9.46c.26-1.23.47-2.33.75-3.41.05-.19.38-.42.58-.42,4.45-.03,8.9-.02,13.57-.02M162.17,17.32c-1.63,0-3.25.02-4.86,0-.97-.02-1.1.47-.91,1.35,1.61,0,3.18-.03,4.75.01.84.02,1.15-.32,1.01-1.35"/>
      <path d="M199.24,8.73c-.18.95-.37,1.94-.57,2.93-.7,3.35-1.42,6.69-2.09,10.04-.12.61-.35.87-1,.87-4.26-.04-8.52-.06-12.77-.08-.11,0-.23-.06-.44-.12.56-2.76,1.1-5.53,1.74-8.28.07-.28.74-.6,1.14-.61,2.56-.04,5.12-.01,7.69.01.7,0,1.19-.12.94-1.13h-9.47c.28-1.28.49-2.38.79-3.46.05-.2.46-.41.7-.41,4.33,0,8.67.03,13.01.06.07,0,.14.06.34.17M193.17,17.37c-1.59,0-3.18.03-4.77,0-.96-.02-1.24.38-.97,1.34,1.58,0,3.15-.04,4.71.02.93.03,1.18-.36,1.04-1.35"/>
      <path d="M167,22.37c1.05-5.04,2.09-10.01,3.12-14.97.05-.23.1-.46.14-.69.63-3.5,1-3.74,4.7-2.99-.32,1.52-.64,3.05-.98,4.73h9.56c-.04.47-.03.81-.09,1.13-.83,4-1.67,8.01-2.49,12.01-.11.55-.22.93-.93.93-4.18-.03-8.36-.02-12.54-.02-.11,0-.22-.06-.48-.13M171.88,18.7c1.78,0,3.39.03,5-.03.24,0,.62-.35.68-.6.43-1.86.81-3.75,1.23-5.78-1.78,0-3.46-.02-5.13.03-.2,0-.49.36-.55.6-.42,1.83-.79,3.67-1.22,5.77"/>
      <path d="M197.99,22.41c.67-3.22,1.35-6.4,2.01-9.58.24-1.15.44-2.32.74-3.46.08-.33.48-.81.73-.82,4.41-.05,8.82-.03,13.36-.03-.03.5-.02.84-.09,1.16-.84,4-1.69,8-2.52,12-.11.54-.2.96-.92.95-4.25-.05-8.51-.06-12.77-.09-.15,0-.3-.07-.54-.14M210.02,12.41c-1.89,0-3.62-.01-5.34.02-.2,0-.53.24-.57.42-.43,1.9-.81,3.8-1.24,5.88,1.88,0,3.57.03,5.25-.03.26,0,.67-.38.74-.65.41-1.79.75-3.6,1.16-5.64"/>
      <path d="M139.73,22.51c.56-2.67,1.08-5.2,1.61-7.73.39-1.85.76-3.69,1.2-5.53.08-.34.46-.84.7-.85,3.06-.06,6.13-.04,9.37-.04-.25,1.27-.42,2.39-.71,3.47-.06.2-.53.41-.82.42-1.3.05-2.61.1-3.9,0-1.03-.08-1.34.33-1.51,1.27-.5,2.66-1.15,5.3-1.64,7.97-.16.86-.52,1.09-1.33,1.03-.93-.06-1.88-.01-2.98-.01"/>
      <path d="M112.95,50.12c.65-3.12,1.22-6.18,1.94-9.19.17-.69.73-1.44,1.33-1.83,1.45-.94,2.9-.14,3.03,1.57.14,1.76.21,3.52.54,5.33.16-.69.34-1.38.48-2.07.27-1.23.6-2.45.75-3.7.14-1.16.68-1.58,1.79-1.38.26.05.53.06.93.1-.57,2.71-1.13,5.36-1.69,8-.12.58-.2,1.17-.39,1.72-.42,1.2-1.62,1.92-2.78,1.71-1.27-.24-1.36-1.26-1.43-2.26-.11-1.67-.22-3.35-.56-5.06-.21.96-.43,1.93-.64,2.9-.17.81-.33,1.62-.5,2.42-.44,2.09-.47,2.11-2.78,1.72"/>
      <path d="M193.14,43.25c-.38,1.79-.76,3.57-1.13,5.36-.43,2.09-.46,2.11-2.77,1.72.14-.71.27-1.43.42-2.14.48-2.27.93-4.55,1.46-6.8.15-.62.41-1.42.89-1.72.66-.42,1.63-.7,2.36-.54.48.11,1.02,1.05,1.1,1.68.24,1.86.27,3.75.59,5.65.39-1.87.78-3.74,1.18-5.6q.42-2.01,2.69-1.67c-.08.53-.15,1.05-.26,1.57-.5,2.47-.93,4.95-1.56,7.39-.2.79-.79,1.66-1.46,2.13-1.32.92-2.72.17-2.88-1.44-.14-1.41-.19-2.82-.28-4.24-.03-.45-.08-.89-.11-1.33-.08,0-.15-.01-.23-.02"/>
      <path d="M140.17,50.22c-.17.06-.2.09-.24.09q-2.6.22-3.57-2.18c-.28-.68-.56-1.36-1.1-2.02-.2.97-.48,1.94-.59,2.92-.12,1.07-.59,1.54-1.68,1.34-.3-.06-.62-.04-1.07-.07.17-.94.31-1.81.49-2.68.53-2.58,1.1-5.16,1.6-7.75.14-.7.39-1,1.15-.97,1.69.07,3.39.02,5.09.08,1.41.05,1.97.66,1.81,2.02-.11.97-.32,1.94-.6,2.88-.35,1.17-1.01,1.6-3,2.16.56,1.38,1.11,2.75,1.7,4.19M135.7,44.1c.9-.13,1.68-.28,2.47-.34,1.1-.07,1.04-.93,1.13-1.63.12-.92-.63-.73-1.13-.72-2.32.05-1.79-.42-2.33,1.92-.07.3-.11.6-.14.76"/>
      <path d="M165.54,50.37c.77-3.71,1.49-7.25,2.27-10.77.05-.24.53-.55.82-.56,1.85-.05,3.71-.05,5.56,0,1.39.04,1.98.67,1.74,2.05-.43,2.44-.96,4.86-1.55,7.27-.28,1.16-1.11,1.96-2.36,2-2.08.07-4.17.02-6.48.02M168.61,47.93c.82,0,1.45-.05,2.07.01.97.08,1.45-.3,1.59-1.28.14-.97.41-1.92.61-2.88q.5-2.4-1.99-2.34c-.55.01-.99.03-1.12.73-.34,1.85-.73,3.69-1.15,5.76"/>
      <path d="M177.88,39.05c2.19,0,4.24-.04,6.29.02,1.1.03,1.71.71,1.58,1.78-.12,1.09-.33,2.19-.67,3.23-.42,1.32-1.54,1.81-3.01,1.94.6,1.45,1.16,2.81,1.81,4.4-.97,0-1.78.07-2.57-.04-.28-.04-.57-.48-.72-.79-.51-1.1-.95-2.21-1.66-3.32-.2.86-.39,1.72-.59,2.58-.4,1.79-.01,1.56-2.04,1.58-.19,0-.38-.03-.76-.07.78-3.78,1.55-7.5,2.33-11.31M179.36,44.27c.81-.14,1.59-.39,2.38-.41,1.2-.03,1.18-.91,1.25-1.64.1-.9-.67-.69-1.18-.7-1.9-.06-1.9-.05-2.28,1.75-.08.37-.14.76-.18,1"/>
      <path d="M132.86,38.91c-.2.96-.36,1.67-.53,2.47-1.25,0-2.43,0-3.6,0-1.5,0-1.67.17-1.77,1.93h4.95c-.12.68-.24,1.2-.31,1.74-.08.62-.39.85-1.03.82-1.14-.06-2.29.01-3.43-.06-1.06-.07-1,.69-1.07,1.32-.1.83.56.69,1.05.7,1.22.01,2.43,0,3.82,0-.14.77-.22,1.41-.41,2.02-.06.21-.44.44-.68.45-1.49.04-3,.07-4.49,0-1.73-.09-2.3-.87-1.97-2.58.41-2.13.86-4.24,1.34-6.35.39-1.67,1.3-2.41,3-2.44,1.65-.03,3.3,0,5.15,0"/>
      <path d="M112.04,47.8c-.14.75-.19,1.34-.39,1.88-.09.25-.47.55-.72.55-1.58.04-3.16.06-4.73-.04-1.48-.09-2.05-.84-1.77-2.3.42-2.24.88-4.48,1.38-6.7.32-1.43,1.17-2.23,2.62-2.31,1.77-.09,3.54-.02,5.3-.02.05.22.11.34.09.44q-.34,2.04-2.38,2.04c-.51,0-1.03,0-1.54,0-1.66,0-1.75.09-1.86,1.94h4.91c-.11.65-.22,1.14-.28,1.64-.07.63-.39.86-1.02.84-1.15-.03-2.29.05-3.43-.02-1.05-.06-.99.69-1.07,1.32-.11.83.53.71,1.03.72,1.21,0,2.43,0,3.86,0"/>
      <path d="M151.42,38.96c-.06.47-.08.78-.14,1.09-.08.42-.19.83-.32,1.37-1.32,0-2.61.04-3.91-.02-.82-.03-1.24.25-1.38,1.07-.27,1.47-.58,2.94-.92,4.39-.17.74.08,1.05.82,1.01h.12q2.17.09,2.61-2.01c.02-.08.04-.15.06-.23q.45-2.11,2.88-1.72c-.36,1.57-.63,3.15-1.12,4.67-.34,1.08-1.28,1.71-2.45,1.75-1.26.05-2.53.06-3.79,0-1.45-.08-2.13-.96-1.85-2.39.43-2.24.9-4.48,1.42-6.7.38-1.63,1.18-2.25,2.84-2.28,1.69-.03,3.37,0,5.12,0"/>
      <path d="M203.98,39.16c-.29,1.58-.58,3.1-.87,4.62.08.03.15.07.23.11.81-1.04,1.74-2.02,2.39-3.15.93-1.64,2.25-2,4.16-1.55-1.09,1.41-2.08,2.81-3.19,4.09-.81.93-1.07,1.76-.52,2.95.6,1.27.96,2.65,1.5,4.22-.95,0-1.75.06-2.54-.04-.23-.03-.48-.46-.59-.76-.54-1.38-1.04-2.78-1.79-4.17-.23,1.04-.46,2.08-.69,3.13-.45,2.1-.53,2.15-2.87,1.69.16-.83.32-1.66.49-2.49.49-2.39.98-4.78,1.48-7.16.35-1.66.36-1.66,2.03-1.6.23,0,.46.06.79.1"/>
      <path d="M153.69,50.2c2.2-4.01-.23-7.42-1.27-11.2.88,0,1.65-.07,2.4.04.27.04.56.48.68.79.37,1.03.67,2.08,1.06,3.32.78-1,1.56-1.79,2.08-2.72.88-1.6,2.21-1.61,3.93-1.32-1.12,1.46-2.13,2.84-3.21,4.17-1.25,1.54-2.35,3.09-2.62,5.16-.28,2.14-.4,2.12-3.05,1.76"/>
      <path d="M185.2,50.28c.76-3.6,1.48-7.13,2.26-10.65.05-.23.43-.52.7-.56.57-.08,1.16-.03,1.92-.03-.33,1.65-.62,3.17-.94,4.69-.33,1.61-.68,3.22-1.03,4.83q-.46,2.11-2.9,1.72"/>
      <path d="M58.35,17.3c-1.3-.13-2.38-.24-3.18-.32.87-1,1.8-2.08,2.92-3.37.1,1.35.17,2.42.26,3.69"/>
      <path d="M65.16,17.77c-1.33-1.69-2.67-3.37-4.16-5.26,2.56-.16,4.99-.31,7.41-.46,0,.05,0,.1.01.14-1.98.21-3.97.42-6.12.64,1.11,1.66,2.14,3.2,3.16,4.74-.11.07-.21.13-.31.2"/>
      <path d="M62.29,17.66c-2.78.06-2.87-.04-2.59-3.3.93,1.18,1.68,2.14,2.59,3.3"/>
      <path d="M59.86,10.1c-.2-3.36-.39-6.72-.59-10.08.08,0,.17-.01.25-.02.28,3.35.56,6.71.84,10.06-.17.01-.34.02-.51.03"/>
      <path d="M58.42,10.12l-2.78-2.31.21-.26c.96.73,1.92,1.46,2.88,2.19-.11.13-.21.25-.31.38"/>
      <path d="M47.89,24.55c-.83.64-1.65,1.3-2.5,1.91-.18.13-.52.14-.74.07-.95-.31-1.65-.21-2.09.83-.29.69-1.44.79-1.92.2-.36-.44-.62-.95-.93-1.43.67-.31,1.21-.55,1.45-.66-.28-1.6-.51-2.93-.75-4.27.08-.04.17-.08.25-.11.59.59,1.19,1.18,1.78,1.77.56.56,1.07.78,1.59-.08.13-.21.55-.24.84-.35.05.29.21.63.12.86-.36.88,0,1.18.83,1.15.62-.03,1.23-.11,1.85-.17.08.1.15.2.22.3"/>
      <path d="M43.79,39.27c.04.27.06.54.14.8.19.69.45,1.35.59,2.05.11.6.17,1.24.1,1.85-.12,1.01-.37,2.02-.6,3.17-.1-.06-.49-.14-.52-.31-.25-1.29-.61-2.59-.59-3.88.02-1.22.46-2.44.71-3.65.06,0,.12-.02.18-.03"/>
      <path d="M43.91,38.08c-1.14-1.47.03-2.53.19-3.65-.06,1.11-.11,2.22-.19,3.65"/>
      <path d="M43.24,33.78c.1-.97.18-1.77.28-2.7.99,1.32.96,1.73-.28,2.7"/>
    </g>
  </g>
</svg>